<svg width="30" height="30" viewBox="0 0 30 30" fill="none" xmlns="http://www.w3.org/2000/svg">
<path d="M30 15C30 23.2842 23.2842 30 15 30C6.71667 30 0 23.2842 0 15C0 6.71667 6.71667 0 15 0C23.2842 0 30 6.71667 30 15Z" fill="#E84A6A"/>
<path d="M21.2375 24.899C21.2 24.7498 20.2642 21.2498 15 21.2498C9.73502 21.2498 8.80002 24.7498 8.76252 24.899C8.71669 25.0798 8.79836 25.2673 8.96002 25.3607C9.12252 25.4515 9.32586 25.4265 9.46002 25.2965C9.47586 25.2807 11.0884 23.7498 15 23.7498C18.9117 23.7498 20.525 25.2807 20.54 25.2957C20.62 25.3748 20.7267 25.4165 20.8334 25.4165C20.9034 25.4165 20.9742 25.399 21.0384 25.3632C21.2017 25.2698 21.2834 25.0807 21.2375 24.899V24.899ZM13.0892 14.4107C10.3767 11.6982 6.01752 11.6665 5.83336 11.6665C5.37336 11.6665 5.00086 12.039 5.00086 12.4982C5.00002 12.9582 5.37252 13.3315 5.83252 13.3332C5.85669 13.3332 7.43669 13.3515 9.15169 13.9473C8.65752 14.4807 8.33336 15.309 8.33336 16.2498C8.33336 17.8615 9.26586 19.1665 10.4167 19.1665C11.5675 19.1665 12.5 17.8615 12.5 16.2498C12.5 16.1048 12.4842 15.9665 12.4692 15.8273C12.48 15.8273 12.49 15.8332 12.5 15.8332C12.7134 15.8332 12.9267 15.7515 13.0892 15.589C13.415 15.2632 13.415 14.7365 13.0892 14.4107V14.4107ZM24.1667 11.6665C23.9825 11.6665 19.6242 11.6982 16.9109 14.4107C16.585 14.7365 16.585 15.2632 16.9109 15.589C17.0734 15.7515 17.2867 15.8332 17.5 15.8332C17.5109 15.8332 17.52 15.8273 17.53 15.8273C17.5167 15.9665 17.5 16.1048 17.5 16.2498C17.5 17.8615 18.4325 19.1665 19.5834 19.1665C20.7342 19.1665 21.6667 17.8615 21.6667 16.2498C21.6667 15.309 21.3425 14.4807 20.8484 13.9473C22.5634 13.3515 24.1434 13.3332 24.1684 13.3332C24.6275 13.3315 25 12.9582 24.9992 12.4982C24.9984 12.039 24.6267 11.6665 24.1667 11.6665V11.6665Z" fill="#292F33"/>
</svg>
