<svg width="30" height="30" viewBox="0 0 30 30" fill="none" xmlns="http://www.w3.org/2000/svg">
<path d="M30 15C30 23.2842 23.2842 30 15 30C6.71583 30 0 23.2842 0 15C0 6.71583 6.71583 0 15 0C23.2842 0 30 6.71583 30 15Z" fill="#96C895"/>
<path d="M24.1666 8.33309C19.5382 8.33309 17.6649 4.69392 17.5874 4.53892C17.3816 4.12726 17.5482 3.62642 17.9599 3.42059C18.3707 3.21559 18.8699 3.38059 19.0766 3.78976C19.1391 3.91142 20.5941 6.66642 24.1666 6.66642C24.6274 6.66642 24.9999 7.03976 24.9999 7.49976C24.9999 7.95976 24.6274 8.33309 24.1666 8.33309ZM5.83324 8.33309C5.37324 8.33309 4.99991 7.95976 4.99991 7.49976C4.99991 7.03976 5.37324 6.66642 5.83324 6.66642C10.0691 6.66642 10.8299 4.06642 10.8607 3.95559C10.9816 3.51559 11.4374 3.24892 11.8766 3.36476C12.3182 3.48059 12.5857 3.92559 12.4749 4.36892C12.4341 4.53059 11.4199 8.33309 5.83324 8.33309ZM5.00074 19.1664C4.74741 19.1664 4.49741 19.0514 4.33324 18.8331C4.05658 18.4656 4.13158 17.9431 4.49991 17.6673C4.61908 17.5781 6.95908 15.8481 10.2132 15.2231C8.15074 14.1889 5.86158 14.1664 5.83241 14.1664C5.37241 14.1656 4.99991 13.7914 5.00074 13.3314C5.00074 12.8723 5.37324 12.4998 5.83324 12.4998C6.01741 12.4998 10.3766 12.5314 13.0891 15.2439C13.3274 15.4823 13.3991 15.8406 13.2699 16.1523C13.1407 16.4639 12.8366 16.6664 12.4999 16.6664C8.65574 16.6664 5.53074 18.9764 5.49991 18.9998C5.34991 19.1123 5.17408 19.1664 5.00074 19.1664V19.1664ZM24.9991 19.1656C24.8257 19.1656 24.6507 19.1123 24.5007 19.0006C24.4691 18.9764 21.3249 16.6664 17.4999 16.6664C17.1632 16.6664 16.8582 16.4639 16.7299 16.1523C16.6007 15.8406 16.6724 15.4823 16.9107 15.2439C19.6241 12.5314 23.9824 12.4998 24.1666 12.4998C24.6266 12.4998 24.9982 12.8723 24.9991 13.3314C24.9999 13.7914 24.6274 14.1648 24.1682 14.1664C24.1382 14.1664 21.8491 14.1889 19.7866 15.2231C23.0407 15.8481 25.3807 17.5773 25.4991 17.6673C25.8666 17.9431 25.9416 18.4639 25.6666 18.8323C25.5032 19.0498 25.2532 19.1656 24.9991 19.1656ZM21.2116 25.6589C21.1132 25.4448 18.7632 20.4164 15.2032 20.4164C11.6624 20.4164 8.91491 25.4223 8.79991 25.6348C8.70574 25.8089 8.74741 26.0256 8.89908 26.1523C8.97658 26.2173 9.07158 26.2498 9.16658 26.2498C9.25824 26.2498 9.34991 26.2198 9.42574 26.1589C9.45158 26.1389 12.0616 24.0931 15.2032 24.0931C18.3224 24.0931 20.5266 26.1181 20.5482 26.1381C20.6941 26.2731 20.9166 26.2881 21.0766 26.1714C21.2382 26.0548 21.2949 25.8406 21.2116 25.6589Z" fill="#664500"/>
</svg>
