<svg width="30" height="30" viewBox="0 0 30 30" fill="none" xmlns="http://www.w3.org/2000/svg">
<path d="M30 15C30 23.2842 23.2842 30 15 30C6.71667 30 0 23.2842 0 15C0 6.71667 6.71667 0 15 0C23.2833 0 30 6.71667 30 15Z" fill="#9F78BA"/>
<path d="M12.8117 21.7685L11.5492 19.856C12.5108 19.221 13.7208 18.871 14.9567 18.871C16.1983 18.871 17.3692 19.206 18.3417 19.8393L17.09 21.7601C15.9025 20.9868 13.9892 20.9901 12.8117 21.7685V21.7685ZM23.365 10.8635C23.1617 10.6135 17.7225 9.61182 17.6767 9.61182C17.5783 9.61182 17.4675 9.68598 17.4475 9.78265C17.2658 10.6385 17.4042 11.5085 17.8358 12.2335C18.27 12.9635 18.95 13.4585 19.7492 13.6276C19.9425 13.6685 20.1417 13.6893 20.3383 13.6893C21.7933 13.6893 23.085 12.576 23.41 11.0418C23.4217 10.9793 23.405 10.9118 23.365 10.8635V10.8635ZM12.305 9.61182C12.2583 9.61182 6.81918 10.6135 6.61585 10.8635C6.57585 10.9126 6.55918 10.9801 6.57251 11.041C6.89668 12.5743 8.18835 13.6876 9.64418 13.6876C9.84085 13.6876 10.0392 13.6668 10.2333 13.626C11.8767 13.2785 12.9092 11.5543 12.535 9.78182C12.515 9.68598 12.4042 9.61182 12.305 9.61182V9.61182Z" fill="#292F33"/>
<path d="M9.71416 24.7062C9.34416 24.7062 8.99999 24.4729 8.87666 24.1029C8.72249 23.6404 8.97249 23.1404 9.43416 22.987C9.51332 22.9595 11.4783 22.2562 11.4783 20.2945C11.4783 18.3329 9.51332 17.6295 9.42999 17.6012C8.97166 17.442 8.72499 16.942 8.88082 16.4829C9.03666 16.0229 9.53082 15.7729 9.99249 15.9287C10.125 15.9729 13.2425 17.0487 13.2425 20.2945C13.2425 23.5404 10.125 24.617 9.99249 24.6604C9.90082 24.6912 9.80666 24.7062 9.71416 24.7062V24.7062ZM20.3017 24.7062C20.2092 24.7062 20.1158 24.6912 20.0233 24.6604C19.8908 24.6162 16.7733 23.5404 16.7733 20.2945C16.7733 17.0487 19.8908 15.972 20.0233 15.9287C20.4892 15.7729 20.985 16.0245 21.1392 16.4862C21.2933 16.947 21.045 17.4454 20.5858 17.6012C20.5025 17.6295 18.5375 18.3329 18.5375 20.2945C18.5375 22.2562 20.5025 22.9595 20.5858 22.9879C21.045 23.147 21.2917 23.647 21.1358 24.1062C21.0108 24.4745 20.6683 24.7062 20.3017 24.7062V24.7062Z" fill="#292F33"/>
</svg>
