<svg width="30" height="30" viewBox="0 0 30 30" fill="none" xmlns="http://www.w3.org/2000/svg">
<path d="M30 15C30 23.2842 23.2842 30 15 30C6.71667 30 0 23.2842 0 15C0 6.71667 6.71667 0 15 0C23.2842 0 30 6.71667 30 15Z" fill="#46C365"/>
<path d="M15 9.16667C22.2908 9.16667 28.3608 12.9242 29.7133 17.9033C29.8983 16.9633 30 15.9933 30 15C30 6.71667 23.2842 0 15 0C6.71667 0 0 6.71667 0 15C0 15.9933 0.1025 16.9633 0.286667 17.9033C1.63917 12.9242 7.71 9.16667 15 9.16667Z" fill="#73B9EC"/>
<path d="M9.58333 16.6668C10.7339 16.6668 11.6667 15.361 11.6667 13.7502C11.6667 12.1393 10.7339 10.8335 9.58333 10.8335C8.43274 10.8335 7.5 12.1393 7.5 13.7502C7.5 15.361 8.43274 16.6668 9.58333 16.6668Z" fill="#664500"/>
<path d="M20.4167 16.6668C21.5673 16.6668 22.5 15.361 22.5 13.7502C22.5 12.1393 21.5673 10.8335 20.4167 10.8335C19.2661 10.8335 18.3334 12.1393 18.3334 13.7502C18.3334 15.361 19.2661 16.6668 20.4167 16.6668Z" fill="#664500"/>
<path d="M4.99908 10C4.82575 10 4.64992 9.94583 4.49992 9.83333C4.13158 9.5575 4.05742 9.035 4.33325 8.66667C7.05158 5.04167 10.6799 5 10.8333 5C11.2933 5 11.6666 5.37333 11.6666 5.83333C11.6666 6.2925 11.2958 6.665 10.8366 6.66667C10.7074 6.66833 7.86325 6.73833 5.66658 9.66667C5.50325 9.885 5.25242 10 4.99908 10ZM25.0008 10C24.7466 10 24.4974 9.885 24.3333 9.66667C22.1333 6.7325 19.2824 6.66833 19.1616 6.66667C18.7033 6.66167 18.3333 6.28667 18.3358 5.82917C18.3383 5.37 18.7083 5 19.1666 5C19.3199 5 22.9474 5.04167 25.6666 8.66667C25.9433 9.035 25.8683 9.5575 25.4999 9.83333C25.3499 9.94583 25.1749 10 25.0008 10V10ZM19.5708 23.2325C19.5616 23.1958 18.6166 19.5833 14.9999 19.5833C11.3833 19.5833 10.4383 23.1958 10.4291 23.2325C10.3849 23.41 10.4649 23.5917 10.6216 23.6858C10.7774 23.7792 10.9824 23.7575 11.1183 23.6358C11.1274 23.6292 11.9641 22.9167 14.9999 22.9167C17.9908 22.9167 18.8474 23.6083 18.8799 23.6358C18.9591 23.7108 19.0624 23.75 19.1666 23.75C19.2366 23.75 19.3074 23.7325 19.3716 23.6967C19.5349 23.6033 19.6166 23.4142 19.5708 23.2325V23.2325Z" fill="#664500"/>
</svg>
