<svg width="30" height="30" viewBox="0 0 30 30" fill="none" xmlns="http://www.w3.org/2000/svg">
<path d="M15 30C23.2843 30 30 23.2843 30 15C30 6.71573 23.2843 0 15 0C6.71573 0 0 6.71573 0 15C0 23.2843 6.71573 30 15 30Z" fill="#FBDE60"/>
<path d="M8.76245 19.684C8.79995 19.8332 9.73579 23.3332 15 23.3332C20.265 23.3332 21.2 19.8332 21.2375 19.684C21.2833 19.5032 21.2016 19.3157 21.04 19.2223C20.8775 19.1298 20.6741 19.1573 20.54 19.2865C20.5241 19.3023 18.9116 20.8332 15 20.8332C11.0883 20.8332 9.47495 19.3023 9.45995 19.2873C9.37995 19.2082 9.27329 19.1665 9.16662 19.1665C9.09662 19.1665 9.02579 19.184 8.96162 19.2198C8.79829 19.3132 8.71662 19.5023 8.76245 19.684V19.684Z" fill="#664500"/>
<path d="M10 14.1668C11.1506 14.1668 12.0834 12.861 12.0834 11.2502C12.0834 9.63933 11.1506 8.3335 10 8.3335C8.84943 8.3335 7.91669 9.63933 7.91669 11.2502C7.91669 12.861 8.84943 14.1668 10 14.1668Z" fill="#664500"/>
<path d="M20 14.1668C21.1506 14.1668 22.0834 12.861 22.0834 11.2502C22.0834 9.63933 21.1506 8.3335 20 8.3335C18.8494 8.3335 17.9167 9.63933 17.9167 11.2502C17.9167 12.861 18.8494 14.1668 20 14.1668Z" fill="#664500"/>
</svg>
