<svg width="30" height="30" viewBox="0 0 30 30" fill="none" xmlns="http://www.w3.org/2000/svg">
<path d="M15 30C23.2843 30 30 23.2843 30 15C30 6.71573 23.2843 0 15 0C6.71573 0 0 6.71573 0 15C0 23.2843 6.71573 30 15 30Z" fill="#5C8FC1"/>
<path d="M21.2374 22.8157C21.1999 22.6665 20.2641 19.1665 14.9999 19.1665C9.7349 19.1665 8.7999 22.6665 8.7624 22.8157C8.71657 22.9965 8.79824 23.184 8.9599 23.2773C9.1224 23.3698 9.32574 23.3423 9.4599 23.2132C9.47574 23.1973 11.0882 21.6665 14.9999 21.6665C18.9116 21.6665 20.5249 23.1973 20.5399 23.2123C20.6199 23.2915 20.7266 23.3332 20.8332 23.3332C20.9032 23.3332 20.9741 23.3157 21.0382 23.2798C21.2016 23.1865 21.2832 22.9973 21.2374 22.8157Z" fill="#664500"/>
<path d="M9.99996 14.1668C11.1506 14.1668 12.0833 12.861 12.0833 11.2502C12.0833 9.63933 11.1506 8.3335 9.99996 8.3335C8.84937 8.3335 7.91663 9.63933 7.91663 11.2502C7.91663 12.861 8.84937 14.1668 9.99996 14.1668Z" fill="#664500"/>
<path d="M20 14.1668C21.1506 14.1668 22.0833 12.861 22.0833 11.2502C22.0833 9.63933 21.1506 8.3335 20 8.3335C18.8494 8.3335 17.9166 9.63933 17.9166 11.2502C17.9166 12.861 18.8494 14.1668 20 14.1668Z" fill="#664500"/>
</svg>
