<svg width="30" height="30" viewBox="0 0 30 30" fill="none" xmlns="http://www.w3.org/2000/svg">
<path d="M30 15C30 23.2842 23.2842 30 15 30C6.71583 30 0 23.2842 0 15C0 6.71583 6.71583 0 15 0C23.2842 0 30 6.71583 30 15Z" fill="#3FA5C0"/>
<path d="M15 24.9998C16.8409 24.9998 18.3333 23.1344 18.3333 20.8332C18.3333 18.532 16.8409 16.6665 15 16.6665C13.159 16.6665 11.6666 18.532 11.6666 20.8332C11.6666 23.1344 13.159 24.9998 15 24.9998Z" fill="#664500"/>
<path d="M9.99996 14.1668C11.1506 14.1668 12.0833 12.861 12.0833 11.2502C12.0833 9.63933 11.1506 8.3335 9.99996 8.3335C8.84937 8.3335 7.91663 9.63933 7.91663 11.2502C7.91663 12.861 8.84937 14.1668 9.99996 14.1668Z" fill="#664500"/>
<path d="M20 14.1668C21.1506 14.1668 22.0833 12.861 22.0833 11.2502C22.0833 9.63933 21.1506 8.3335 20 8.3335C18.8494 8.3335 17.9166 9.63933 17.9166 11.2502C17.9166 12.861 18.8494 14.1668 20 14.1668Z" fill="#664500"/>
</svg>
